# xmcd
#
# Track frame offsets:
#	151
#	11116
#	20978
#	34738
#	46759
#	59600
#	69131
#	80620
#	90982
#	104928
#	118071
#	127472
#	137069
#	149069
#	160157
#	172095
#	183466
#	194514
#
# Disc length: 2933 seconds
#
# Revision: 2
# Processed by: cddbd v1.5.1PL0 Copyright (c) Steve Scherf et al.
# Submitted via: audiograbber 1.83.01
#
DISCID=170b7312
DTITLE=C.r.c. Music - Vol.3 (Orgel. J'adore Les Femmes)
DYEAR=1900
DGENRE=Vocal
TTITLE0=J'adore Les Femmes
TTITLE1=Lily Musette
TTITLE2=Après Toi
TTITLE3=O Sole Mio
TTITLE4=N'oublie Jamais
TTITLE5=C'est Magnifique
TTITLE6=Elle S'appelle... Mexicana
TTITLE7=Besame Mucho
TTITLE8=Une Nuit D'été
TTITLE9=Balalaïka
TTITLE10=Oh Marie
TTITLE11=Je Te Fais Serment
TTITLE12=Jubile
TTITLE13=Riquita
TTITLE14=Gitane
TTITLE15=Rose Marie Polka
TTITLE16=Oh Jo
TTITLE17=Polonaese Blankenese
EXTD=
EXTT0=
EXTT1=
EXTT2=
EXTT3=
EXTT4=
EXTT5=
EXTT6=
EXTT7=
EXTT8=
EXTT9=
EXTT10=
EXTT11=
EXTT12=
EXTT13=
EXTT14=
EXTT15=
EXTT16=
EXTT17=
PLAYORDER=
